<mxfile host="app.diagrams.net" modified="2023-07-22T07:55:03.379Z" agent="Mozilla/5.0 (Macintosh; Intel Mac OS X 10_15_7) AppleWebKit/605.1.15 (KHTML, like Gecko) Version/16.5.2 Safari/605.1.15" etag="XptGJNczCMMdpczHg_R-" version="21.6.2">
  <diagram name="Page-1" id="0XOCY9kp1nmSyz670PxM">
    <mxGraphModel dx="794" dy="522" grid="1" gridSize="10" guides="1" tooltips="1" connect="1" arrows="1" fold="1" page="1" pageScale="1" pageWidth="827" pageHeight="1169" background="#ffffff" math="1" shadow="0">
      <root>
        <mxCell id="0" />
        <mxCell id="1" parent="0" />
        <mxCell id="obtsqBr8rjR5T2PNhJ3r-45" value="" style="group" vertex="1" connectable="0" parent="1">
          <mxGeometry x="20" y="110" width="635" height="396.15" as="geometry" />
        </mxCell>
        <mxCell id="obtsqBr8rjR5T2PNhJ3r-44" value="" style="rounded=0;whiteSpace=wrap;html=1;fillColor=#f9f7ed;strokeColor=none;" vertex="1" parent="obtsqBr8rjR5T2PNhJ3r-45">
          <mxGeometry width="630" height="396.15" as="geometry" />
        </mxCell>
        <mxCell id="obtsqBr8rjR5T2PNhJ3r-15" value="" style="rounded=1;whiteSpace=wrap;html=1;fillColor=#f8cecc;strokeColor=#b85450;" vertex="1" parent="obtsqBr8rjR5T2PNhJ3r-45">
          <mxGeometry x="10" y="115.65" width="80" height="160.5" as="geometry" />
        </mxCell>
        <mxCell id="obtsqBr8rjR5T2PNhJ3r-1" value="" style="sketch=0;pointerEvents=1;shadow=0;dashed=0;html=1;strokeColor=#333333;fillColor=#333333;aspect=fixed;labelPosition=center;verticalLabelPosition=bottom;verticalAlign=top;align=center;outlineConnect=0;shape=mxgraph.vvd.nsx_edge_and_load_balancer;" vertex="1" parent="obtsqBr8rjR5T2PNhJ3r-45">
          <mxGeometry x="170" y="175.65" width="50" height="40.5" as="geometry" />
        </mxCell>
        <mxCell id="obtsqBr8rjR5T2PNhJ3r-6" value="" style="sketch=0;outlineConnect=0;fontColor=#232F3E;gradientColor=none;strokeColor=#232F3E;fillColor=none;dashed=0;verticalLabelPosition=bottom;verticalAlign=top;align=center;html=1;fontSize=12;fontStyle=0;aspect=fixed;shape=mxgraph.aws4.resourceIcon;resIcon=mxgraph.aws4.generic;" vertex="1" parent="obtsqBr8rjR5T2PNhJ3r-45">
          <mxGeometry x="20" y="126.15" width="60" height="60" as="geometry" />
        </mxCell>
        <mxCell id="obtsqBr8rjR5T2PNhJ3r-9" value="Data &lt;br&gt;processing&amp;nbsp;&lt;br&gt;requests" style="text;html=1;align=center;verticalAlign=middle;resizable=0;points=[];autosize=1;strokeColor=none;fillColor=none;fontSize=16;fontStyle=1" vertex="1" parent="obtsqBr8rjR5T2PNhJ3r-45">
          <mxGeometry y="45.650000000000006" width="110" height="70" as="geometry" />
        </mxCell>
        <mxCell id="obtsqBr8rjR5T2PNhJ3r-11" value="" style="sketch=0;outlineConnect=0;fontColor=#232F3E;gradientColor=none;fillColor=#232F3D;strokeColor=none;dashed=0;verticalLabelPosition=bottom;verticalAlign=top;align=center;html=1;fontSize=12;fontStyle=0;aspect=fixed;pointerEvents=1;shape=mxgraph.aws4.users;" vertex="1" parent="obtsqBr8rjR5T2PNhJ3r-45">
          <mxGeometry x="20" y="200.15" width="60" height="60" as="geometry" />
        </mxCell>
        <mxCell id="obtsqBr8rjR5T2PNhJ3r-14" value="" style="shape=flexArrow;endArrow=classic;html=1;rounded=0;exitX=1;exitY=0.5;exitDx=0;exitDy=0;" edge="1" parent="obtsqBr8rjR5T2PNhJ3r-45" source="obtsqBr8rjR5T2PNhJ3r-15">
          <mxGeometry width="50" height="50" relative="1" as="geometry">
            <mxPoint x="100" y="196.15" as="sourcePoint" />
            <mxPoint x="170" y="196.15" as="targetPoint" />
          </mxGeometry>
        </mxCell>
        <mxCell id="obtsqBr8rjR5T2PNhJ3r-18" value="" style="rounded=0;whiteSpace=wrap;html=1;fillColor=#d5e8d4;strokeColor=#82b366;" vertex="1" parent="obtsqBr8rjR5T2PNhJ3r-45">
          <mxGeometry x="280" y="6.150000000000006" width="170" height="380" as="geometry" />
        </mxCell>
        <mxCell id="obtsqBr8rjR5T2PNhJ3r-17" value="Load&lt;br&gt;balancing" style="text;html=1;align=center;verticalAlign=middle;resizable=0;points=[];autosize=1;strokeColor=none;fillColor=none;fontSize=16;fontStyle=1" vertex="1" parent="obtsqBr8rjR5T2PNhJ3r-45">
          <mxGeometry x="150" y="125.65" width="100" height="50" as="geometry" />
        </mxCell>
        <mxCell id="obtsqBr8rjR5T2PNhJ3r-19" value="\(\lambda\)" style="text;html=1;align=center;verticalAlign=middle;resizable=0;points=[];autosize=1;strokeColor=none;fillColor=none;fontSize=16;" vertex="1" parent="obtsqBr8rjR5T2PNhJ3r-45">
          <mxGeometry x="70" y="162.3" width="100" height="30" as="geometry" />
        </mxCell>
        <mxCell id="obtsqBr8rjR5T2PNhJ3r-21" value="" style="rounded=0;whiteSpace=wrap;html=1;fillColor=#fff2cc;strokeColor=#d6b656;" vertex="1" parent="obtsqBr8rjR5T2PNhJ3r-45">
          <mxGeometry x="450" y="6.150000000000006" width="170" height="380" as="geometry" />
        </mxCell>
        <mxCell id="obtsqBr8rjR5T2PNhJ3r-27" style="edgeStyle=orthogonalEdgeStyle;rounded=0;orthogonalLoop=1;jettySize=auto;html=1;shape=flexArrow;width=4;endSize=5.33;endWidth=18;" edge="1" parent="obtsqBr8rjR5T2PNhJ3r-45" source="obtsqBr8rjR5T2PNhJ3r-1" target="obtsqBr8rjR5T2PNhJ3r-39">
          <mxGeometry relative="1" as="geometry">
            <mxPoint x="320" y="111.15" as="targetPoint" />
            <Array as="points">
              <mxPoint x="270" y="186.15" />
              <mxPoint x="270" y="111.15" />
            </Array>
          </mxGeometry>
        </mxCell>
        <mxCell id="obtsqBr8rjR5T2PNhJ3r-28" value="" style="rounded=0;whiteSpace=wrap;html=1;shape=image;labelBackgroundColor=default;verticalAlign=top;verticalLabelPosition=bottom;aspect=fixed;perimeter=ellipsePerimeter;shadow=0;dashed=0;spacingTop=3;image=img/lib/active_directory/server_farm.svg;" vertex="1" parent="obtsqBr8rjR5T2PNhJ3r-45">
          <mxGeometry x="480" y="216.15" width="110" height="110" as="geometry" />
        </mxCell>
        <mxCell id="obtsqBr8rjR5T2PNhJ3r-29" style="edgeStyle=orthogonalEdgeStyle;rounded=0;orthogonalLoop=1;jettySize=auto;html=1;entryX=0;entryY=0.5;entryDx=0;entryDy=0;shape=flexArrow;width=6;endSize=5.33;" edge="1" parent="obtsqBr8rjR5T2PNhJ3r-45" source="obtsqBr8rjR5T2PNhJ3r-1" target="obtsqBr8rjR5T2PNhJ3r-28">
          <mxGeometry relative="1" as="geometry">
            <Array as="points">
              <mxPoint x="270" y="206.15" />
              <mxPoint x="270" y="271.15" />
            </Array>
          </mxGeometry>
        </mxCell>
        <mxCell id="obtsqBr8rjR5T2PNhJ3r-32" value="Data procesing &lt;br&gt;Edge devices&amp;nbsp;" style="text;html=1;align=center;verticalAlign=middle;resizable=0;points=[];autosize=1;strokeColor=none;fillColor=none;fontSize=16;fontStyle=1" vertex="1" parent="obtsqBr8rjR5T2PNhJ3r-45">
          <mxGeometry x="295" y="10" width="140" height="50" as="geometry" />
        </mxCell>
        <mxCell id="obtsqBr8rjR5T2PNhJ3r-33" value="Data&amp;nbsp;procesing&lt;br&gt;Cloud VM servers&amp;nbsp;" style="text;html=1;align=center;verticalAlign=middle;resizable=0;points=[];autosize=1;strokeColor=none;fillColor=none;fontSize=16;fontStyle=1" vertex="1" parent="obtsqBr8rjR5T2PNhJ3r-45">
          <mxGeometry x="455" y="170.9" width="160" height="50" as="geometry" />
        </mxCell>
        <mxCell id="obtsqBr8rjR5T2PNhJ3r-34" value="" style="image;sketch=0;aspect=fixed;html=1;points=[];align=center;fontSize=12;image=img/lib/mscae/Data_Box_Edge_Data_Box_Gateway.svg;" vertex="1" parent="obtsqBr8rjR5T2PNhJ3r-45">
          <mxGeometry x="490.93" y="86.15" width="78.13" height="50" as="geometry" />
        </mxCell>
        <mxCell id="obtsqBr8rjR5T2PNhJ3r-38" style="edgeStyle=orthogonalEdgeStyle;rounded=0;orthogonalLoop=1;jettySize=auto;html=1;exitX=1;exitY=0.5;exitDx=0;exitDy=0;" edge="1" parent="obtsqBr8rjR5T2PNhJ3r-45" source="obtsqBr8rjR5T2PNhJ3r-28" target="obtsqBr8rjR5T2PNhJ3r-34">
          <mxGeometry relative="1" as="geometry">
            <Array as="points">
              <mxPoint x="610" y="271.15" />
              <mxPoint x="610" y="156.15" />
              <mxPoint x="530" y="156.15" />
            </Array>
          </mxGeometry>
        </mxCell>
        <mxCell id="obtsqBr8rjR5T2PNhJ3r-35" value="Processed&lt;br&gt;data results &lt;br&gt;storage" style="text;html=1;align=center;verticalAlign=middle;resizable=0;points=[];autosize=1;strokeColor=none;fillColor=none;fontSize=16;fontStyle=1" vertex="1" parent="obtsqBr8rjR5T2PNhJ3r-45">
          <mxGeometry x="475" y="16.150000000000006" width="110" height="70" as="geometry" />
        </mxCell>
        <mxCell id="obtsqBr8rjR5T2PNhJ3r-39" value="" style="image;points=[];aspect=fixed;html=1;align=center;shadow=0;dashed=0;image=img/lib/allied_telesis/storage/Datacenter_Server_Half_Rack_ToR.svg;" vertex="1" parent="obtsqBr8rjR5T2PNhJ3r-45">
          <mxGeometry x="330.63" y="60" width="78.73" height="102.3" as="geometry" />
        </mxCell>
        <mxCell id="obtsqBr8rjR5T2PNhJ3r-36" style="edgeStyle=orthogonalEdgeStyle;rounded=0;orthogonalLoop=1;jettySize=auto;html=1;exitX=0.995;exitY=0.5;exitDx=0;exitDy=0;exitPerimeter=0;" edge="1" parent="obtsqBr8rjR5T2PNhJ3r-45" source="obtsqBr8rjR5T2PNhJ3r-39" target="obtsqBr8rjR5T2PNhJ3r-34">
          <mxGeometry relative="1" as="geometry">
            <mxPoint x="420" y="111.15" as="sourcePoint" />
          </mxGeometry>
        </mxCell>
        <mxCell id="obtsqBr8rjR5T2PNhJ3r-40" value="\(\lambda \cdot P_E\)" style="text;html=1;align=center;verticalAlign=middle;resizable=0;points=[];autosize=1;strokeColor=none;fillColor=none;fontSize=16;" vertex="1" parent="obtsqBr8rjR5T2PNhJ3r-45">
          <mxGeometry x="150" y="95.65" width="170" height="30" as="geometry" />
        </mxCell>
        <mxCell id="obtsqBr8rjR5T2PNhJ3r-41" value="\(\lambda \cdot (1-P_E)\)" style="text;html=1;align=center;verticalAlign=middle;resizable=0;points=[];autosize=1;strokeColor=none;fillColor=none;fontSize=16;" vertex="1" parent="obtsqBr8rjR5T2PNhJ3r-45">
          <mxGeometry x="110" y="246.15" width="200" height="30" as="geometry" />
        </mxCell>
        <mxCell id="obtsqBr8rjR5T2PNhJ3r-42" value="\([N_E, T_E,&amp;nbsp;B_p, C_E]\)" style="text;html=1;align=center;verticalAlign=middle;resizable=0;points=[];autosize=1;strokeColor=none;fillColor=none;fontSize=16;" vertex="1" parent="obtsqBr8rjR5T2PNhJ3r-45">
          <mxGeometry x="265" y="172.29999999999998" width="200" height="30" as="geometry" />
        </mxCell>
        <mxCell id="obtsqBr8rjR5T2PNhJ3r-43" value="\([N_C, T_C, C_C,\)&lt;br&gt;\(\text{Capacity pricing}]\)" style="text;html=1;align=center;verticalAlign=middle;resizable=0;points=[];autosize=1;strokeColor=none;fillColor=none;fontSize=16;" vertex="1" parent="obtsqBr8rjR5T2PNhJ3r-45">
          <mxGeometry x="435" y="326.15" width="200" height="50" as="geometry" />
        </mxCell>
      </root>
    </mxGraphModel>
  </diagram>
</mxfile>
